G75*
%MOIN*%
%OFA0B0*%
%FSLAX24Y24*%
%IPPOS*%
%LPD*%
%AMOC8*
5,1,8,0,0,1.08239X$1,22.5*
%
%ADD10C,0.0030*%
%ADD11C,0.0080*%
D10*
X001231Y000315D02*
X001231Y000495D01*
X001321Y000585D01*
X001411Y000495D01*
X001411Y000315D01*
X001507Y000360D02*
X001552Y000315D01*
X001642Y000315D01*
X001687Y000360D01*
X001687Y000540D01*
X001642Y000585D01*
X001552Y000585D01*
X001507Y000540D01*
X001411Y000450D02*
X001231Y000450D01*
X002058Y000360D02*
X002058Y000315D01*
X002103Y000315D01*
X002103Y000360D01*
X002058Y000360D01*
X002058Y000315D02*
X002148Y000225D01*
X002244Y000315D02*
X002379Y000315D01*
X002424Y000360D01*
X002379Y000405D01*
X002244Y000405D01*
X002244Y000450D02*
X002244Y000315D01*
X002244Y000450D02*
X002289Y000495D01*
X002379Y000495D01*
X002520Y000450D02*
X002520Y000315D01*
X002520Y000450D02*
X002565Y000495D01*
X002700Y000495D01*
X002700Y000315D01*
X002796Y000405D02*
X002977Y000405D01*
X002977Y000360D02*
X002977Y000450D01*
X002932Y000495D01*
X002841Y000495D01*
X002796Y000450D01*
X002796Y000405D01*
X002841Y000315D02*
X002932Y000315D01*
X002977Y000360D01*
X003073Y000315D02*
X003208Y000315D01*
X003253Y000360D01*
X003253Y000450D01*
X003208Y000495D01*
X003073Y000495D01*
X003073Y000585D02*
X003073Y000315D01*
X003349Y000315D02*
X003484Y000315D01*
X003529Y000360D01*
X003484Y000405D01*
X003349Y000405D01*
X003349Y000450D02*
X003349Y000315D01*
X003349Y000450D02*
X003394Y000495D01*
X003484Y000495D01*
X003625Y000495D02*
X003760Y000495D01*
X003805Y000450D01*
X003760Y000405D01*
X003670Y000405D01*
X003625Y000360D01*
X003670Y000315D01*
X003805Y000315D01*
X003901Y000315D02*
X004036Y000315D01*
X004082Y000360D01*
X004036Y000405D01*
X003901Y000405D01*
X003901Y000450D02*
X003901Y000315D01*
X003901Y000450D02*
X003946Y000495D01*
X004036Y000495D01*
X004178Y000450D02*
X004223Y000405D01*
X004358Y000405D01*
X004358Y000315D02*
X004358Y000585D01*
X004223Y000585D01*
X004178Y000540D01*
X004178Y000450D01*
X003879Y003815D02*
X003879Y003995D01*
X003789Y004085D01*
X003699Y003995D01*
X003699Y003815D01*
X003603Y003860D02*
X003558Y003815D01*
X003468Y003815D01*
X003423Y003860D01*
X003327Y003815D02*
X003327Y004085D01*
X003191Y004085D01*
X003146Y004040D01*
X003146Y003950D01*
X003191Y003905D01*
X003327Y003905D01*
X003236Y003905D02*
X003146Y003815D01*
X003050Y003860D02*
X003005Y003815D01*
X002915Y003815D01*
X002870Y003860D01*
X002870Y004040D01*
X002915Y004085D01*
X003005Y004085D01*
X003050Y004040D01*
X003050Y003860D01*
X002774Y003815D02*
X002774Y004085D01*
X002639Y004085D01*
X002594Y004040D01*
X002594Y003995D01*
X002639Y003950D01*
X002774Y003950D01*
X002639Y003950D02*
X002594Y003905D01*
X002594Y003860D01*
X002639Y003815D01*
X002774Y003815D01*
X002498Y003860D02*
X002498Y004040D01*
X002453Y004085D01*
X002363Y004085D01*
X002318Y004040D01*
X002318Y003860D01*
X002363Y003815D01*
X002453Y003815D01*
X002498Y003860D01*
X002222Y004085D02*
X002041Y004085D01*
X002132Y004085D02*
X002132Y003815D01*
X001945Y003815D02*
X001855Y003815D01*
X001900Y003815D02*
X001900Y004085D01*
X001945Y004085D02*
X001855Y004085D01*
X001761Y004040D02*
X001761Y003860D01*
X001716Y003815D01*
X001626Y003815D01*
X001581Y003860D01*
X001581Y004040D02*
X001626Y004085D01*
X001716Y004085D01*
X001761Y004040D01*
X001252Y003995D02*
X001162Y003815D01*
X001072Y003995D01*
X000976Y003995D02*
X000886Y004085D01*
X000886Y003815D01*
X000976Y003815D02*
X000795Y003815D01*
X000699Y003815D02*
X000654Y003815D01*
X000654Y003860D01*
X000699Y003860D01*
X000699Y003815D01*
X000561Y003815D02*
X000381Y003815D01*
X000471Y003815D02*
X000471Y004085D01*
X000561Y003995D01*
X003423Y004040D02*
X003468Y004085D01*
X003558Y004085D01*
X003603Y004040D01*
X003603Y003860D01*
X003699Y003950D02*
X003879Y003950D01*
D11*
X001300Y000700D02*
X000300Y000700D01*
X000300Y003700D01*
X001300Y003700D01*
X001300Y000700D01*
X001800Y000700D02*
X003800Y000700D01*
X003800Y003700D01*
X001800Y003700D01*
X001800Y000700D01*
X004300Y000700D02*
X004300Y003700D01*
X005300Y003700D01*
X005300Y000700D01*
X004300Y000700D01*
X001600Y002950D02*
X001600Y003450D01*
M02*
