G75*
%MOIN*%
%OFA0B0*%
%FSLAX24Y24*%
%IPPOS*%
%LPD*%
%AMOC8*
5,1,8,0,0,1.08239X$1,22.5*
%
%ADD10C,0.0010*%
%ADD11R,0.0740X0.0740*%
%ADD12C,0.0740*%
%ADD13C,0.0100*%
D10*
X000300Y000200D02*
X005300Y000200D01*
X005300Y004200D01*
X000300Y004200D01*
X000300Y000200D01*
D11*
X000800Y003200D03*
X002300Y003200D03*
D12*
X003300Y003200D03*
X003300Y002200D03*
X002300Y002200D03*
X002300Y001200D03*
X003300Y001200D03*
X004800Y001200D03*
X004800Y002200D03*
X004800Y003200D03*
X000800Y002200D03*
X000800Y001200D03*
D13*
X001197Y000890D02*
X001903Y000890D01*
X001876Y000917D02*
X002017Y000776D01*
X002201Y000700D01*
X002399Y000700D01*
X002583Y000776D01*
X002724Y000917D01*
X002792Y001082D01*
X002793Y001078D01*
X002818Y001000D01*
X002855Y000927D01*
X002903Y000861D01*
X002961Y000803D01*
X003027Y000755D01*
X003100Y000718D01*
X003178Y000693D01*
X003250Y000681D01*
X003250Y001150D01*
X003350Y001150D01*
X003350Y001250D01*
X003819Y001250D01*
X003807Y001322D01*
X003782Y001400D01*
X003745Y001473D01*
X003697Y001539D01*
X003639Y001597D01*
X003573Y001645D01*
X003500Y001682D01*
X003422Y001707D01*
X003418Y001708D01*
X003583Y001776D01*
X004517Y001776D01*
X004682Y001708D01*
X004678Y001707D01*
X004600Y001682D01*
X004527Y001645D01*
X004461Y001597D01*
X004403Y001539D01*
X004355Y001473D01*
X004318Y001400D01*
X004293Y001322D01*
X004281Y001250D01*
X004750Y001250D01*
X004750Y001150D01*
X004850Y001150D01*
X004850Y000681D01*
X004922Y000693D01*
X005000Y000718D01*
X005073Y000755D01*
X005139Y000803D01*
X005165Y000830D01*
X005165Y000335D01*
X000435Y000335D01*
X000435Y000858D01*
X000517Y000776D01*
X000701Y000700D01*
X000899Y000700D01*
X001083Y000776D01*
X001224Y000917D01*
X001300Y001101D01*
X001300Y001299D01*
X001224Y001483D01*
X001083Y001624D01*
X000899Y001700D01*
X001083Y001776D01*
X002017Y001776D01*
X002201Y001700D01*
X002399Y001700D01*
X002583Y001776D01*
X003017Y001776D01*
X003182Y001708D01*
X003178Y001707D01*
X003100Y001682D01*
X003027Y001645D01*
X002961Y001597D01*
X002903Y001539D01*
X002855Y001473D01*
X002818Y001400D01*
X002793Y001322D01*
X002792Y001318D01*
X002724Y001483D01*
X002583Y001624D01*
X002399Y001700D01*
X002201Y001700D01*
X002017Y001624D01*
X001876Y001483D01*
X001800Y001299D01*
X001800Y001101D01*
X001876Y000917D01*
X001847Y000988D02*
X001253Y000988D01*
X001294Y001087D02*
X001806Y001087D01*
X001800Y001185D02*
X001300Y001185D01*
X001300Y001284D02*
X001800Y001284D01*
X001834Y001382D02*
X001266Y001382D01*
X001225Y001481D02*
X001875Y001481D01*
X001972Y001579D02*
X001128Y001579D01*
X000954Y001678D02*
X002146Y001678D01*
X002017Y001776D02*
X001876Y001917D01*
X001800Y002101D01*
X001800Y002299D01*
X001876Y002483D01*
X002017Y002624D01*
X002201Y002700D01*
X002399Y002700D01*
X002583Y002624D01*
X002724Y002483D01*
X002800Y002299D01*
X002800Y002101D01*
X002724Y001917D01*
X002583Y001776D01*
X002682Y001875D02*
X002918Y001875D01*
X002876Y001917D02*
X003017Y001776D01*
X003092Y001678D02*
X002454Y001678D01*
X002628Y001579D02*
X002944Y001579D01*
X002861Y001481D02*
X002725Y001481D01*
X002766Y001382D02*
X002812Y001382D01*
X003250Y001087D02*
X003350Y001087D01*
X003350Y001150D02*
X003350Y000681D01*
X003422Y000693D01*
X003500Y000718D01*
X003573Y000755D01*
X003639Y000803D01*
X003697Y000861D01*
X003745Y000927D01*
X003782Y001000D01*
X003807Y001078D01*
X003819Y001150D01*
X003350Y001150D01*
X003350Y001185D02*
X004750Y001185D01*
X004750Y001150D02*
X004281Y001150D01*
X004293Y001078D01*
X004318Y001000D01*
X004355Y000927D01*
X004403Y000861D01*
X004461Y000803D01*
X004527Y000755D01*
X004600Y000718D01*
X004678Y000693D01*
X004750Y000681D01*
X004750Y001150D01*
X004750Y001087D02*
X004850Y001087D01*
X004850Y000988D02*
X004750Y000988D01*
X004750Y000890D02*
X004850Y000890D01*
X004850Y000791D02*
X004750Y000791D01*
X004750Y000693D02*
X004850Y000693D01*
X004920Y000693D02*
X005165Y000693D01*
X005165Y000791D02*
X005122Y000791D01*
X005165Y000594D02*
X000435Y000594D01*
X000435Y000496D02*
X005165Y000496D01*
X005165Y000397D02*
X000435Y000397D01*
X000435Y000693D02*
X003180Y000693D01*
X003250Y000693D02*
X003350Y000693D01*
X003420Y000693D02*
X004680Y000693D01*
X004478Y000791D02*
X003622Y000791D01*
X003717Y000890D02*
X004383Y000890D01*
X004324Y000988D02*
X003776Y000988D01*
X003809Y001087D02*
X004291Y001087D01*
X004287Y001284D02*
X003813Y001284D01*
X003788Y001382D02*
X004312Y001382D01*
X004361Y001481D02*
X003739Y001481D01*
X003656Y001579D02*
X004444Y001579D01*
X004592Y001678D02*
X003508Y001678D01*
X003583Y001776D02*
X003724Y001917D01*
X003800Y002101D01*
X003800Y002299D01*
X003724Y002483D01*
X003583Y002624D01*
X003399Y002700D01*
X003201Y002700D01*
X003017Y002624D01*
X002876Y002483D01*
X002800Y002299D01*
X002800Y002101D01*
X002876Y001917D01*
X002853Y001973D02*
X002747Y001973D01*
X002788Y002072D02*
X002812Y002072D01*
X002800Y002170D02*
X002800Y002170D01*
X002800Y002269D02*
X002800Y002269D01*
X002772Y002367D02*
X002828Y002367D01*
X002869Y002466D02*
X002731Y002466D01*
X002643Y002564D02*
X002957Y002564D01*
X003110Y002663D02*
X002490Y002663D01*
X002724Y002700D02*
X002800Y002776D01*
X002800Y003624D01*
X002724Y003700D01*
X001876Y003700D01*
X001800Y003624D01*
X001800Y002776D01*
X001876Y002700D01*
X002724Y002700D01*
X002785Y002761D02*
X003053Y002761D01*
X003017Y002776D02*
X003201Y002700D01*
X003399Y002700D01*
X003583Y002776D01*
X003724Y002917D01*
X003800Y003101D01*
X003800Y003299D01*
X003724Y003483D01*
X003583Y003624D01*
X003399Y003700D01*
X003201Y003700D01*
X003017Y003624D01*
X002876Y003483D01*
X002800Y003299D01*
X002800Y003101D01*
X002876Y002917D01*
X003017Y002776D01*
X002933Y002860D02*
X002800Y002860D01*
X002800Y002958D02*
X002859Y002958D01*
X002818Y003057D02*
X002800Y003057D01*
X002800Y003155D02*
X002800Y003155D01*
X002800Y003254D02*
X002800Y003254D01*
X002800Y003352D02*
X002822Y003352D01*
X002800Y003451D02*
X002863Y003451D01*
X002800Y003549D02*
X002942Y003549D01*
X003074Y003648D02*
X002776Y003648D01*
X003526Y003648D02*
X004574Y003648D01*
X004517Y003624D02*
X004376Y003483D01*
X004300Y003299D01*
X004300Y003101D01*
X004376Y002917D01*
X004517Y002776D01*
X004701Y002700D01*
X004517Y002624D01*
X004376Y002483D01*
X004300Y002299D01*
X004300Y002101D01*
X004376Y001917D01*
X004517Y001776D01*
X004418Y001875D02*
X003682Y001875D01*
X003747Y001973D02*
X004353Y001973D01*
X004312Y002072D02*
X003788Y002072D01*
X003800Y002170D02*
X004300Y002170D01*
X004300Y002269D02*
X003800Y002269D01*
X003772Y002367D02*
X004328Y002367D01*
X004369Y002466D02*
X003731Y002466D01*
X003643Y002564D02*
X004457Y002564D01*
X004610Y002663D02*
X003490Y002663D01*
X003547Y002761D02*
X004553Y002761D01*
X004433Y002860D02*
X003667Y002860D01*
X003741Y002958D02*
X004359Y002958D01*
X004318Y003057D02*
X003782Y003057D01*
X003800Y003155D02*
X004300Y003155D01*
X004300Y003254D02*
X003800Y003254D01*
X003778Y003352D02*
X004322Y003352D01*
X004363Y003451D02*
X003737Y003451D01*
X003658Y003549D02*
X004442Y003549D01*
X004517Y003624D02*
X004701Y003700D01*
X004899Y003700D01*
X005083Y003624D01*
X005165Y003542D01*
X005165Y004065D01*
X000435Y004065D01*
X000435Y003700D01*
X001224Y003700D01*
X001300Y003624D01*
X001300Y002776D01*
X001224Y002700D01*
X000435Y002700D01*
X000435Y002542D01*
X000517Y002624D01*
X000701Y002700D01*
X000899Y002700D01*
X001083Y002624D01*
X001224Y002483D01*
X001300Y002299D01*
X001300Y002101D01*
X001224Y001917D01*
X001083Y001776D01*
X001182Y001875D02*
X001918Y001875D01*
X001853Y001973D02*
X001247Y001973D01*
X001288Y002072D02*
X001812Y002072D01*
X001800Y002170D02*
X001300Y002170D01*
X001300Y002269D02*
X001800Y002269D01*
X001828Y002367D02*
X001272Y002367D01*
X001231Y002466D02*
X001869Y002466D01*
X001957Y002564D02*
X001143Y002564D01*
X000990Y002663D02*
X002110Y002663D01*
X001815Y002761D02*
X001285Y002761D01*
X001300Y002860D02*
X001800Y002860D01*
X001800Y002958D02*
X001300Y002958D01*
X001300Y003057D02*
X001800Y003057D01*
X001800Y003155D02*
X001300Y003155D01*
X001300Y003254D02*
X001800Y003254D01*
X001800Y003352D02*
X001300Y003352D01*
X001300Y003451D02*
X001800Y003451D01*
X001800Y003549D02*
X001300Y003549D01*
X001276Y003648D02*
X001824Y003648D01*
X000610Y002663D02*
X000435Y002663D01*
X000435Y002564D02*
X000457Y002564D01*
X000435Y001858D02*
X000517Y001776D01*
X000435Y001776D01*
X000517Y001776D02*
X000701Y001700D01*
X000899Y001700D01*
X000701Y001700D01*
X000517Y001624D01*
X000435Y001542D01*
X000435Y001858D01*
X000435Y001678D02*
X000646Y001678D01*
X000472Y001579D02*
X000435Y001579D01*
X000435Y000791D02*
X000502Y000791D01*
X001098Y000791D02*
X002002Y000791D01*
X002598Y000791D02*
X002978Y000791D01*
X002883Y000890D02*
X002697Y000890D01*
X002753Y000988D02*
X002824Y000988D01*
X003250Y000988D02*
X003350Y000988D01*
X003350Y000890D02*
X003250Y000890D01*
X003250Y000791D02*
X003350Y000791D01*
X005165Y002542D02*
X005083Y002624D01*
X004899Y002700D01*
X004701Y002700D01*
X004899Y002700D01*
X005083Y002776D01*
X005165Y002858D01*
X005165Y002542D01*
X005165Y002564D02*
X005143Y002564D01*
X005165Y002663D02*
X004990Y002663D01*
X005047Y002761D02*
X005165Y002761D01*
X005158Y003549D02*
X005165Y003549D01*
X005165Y003648D02*
X005026Y003648D01*
X005165Y003746D02*
X000435Y003746D01*
X000435Y003845D02*
X005165Y003845D01*
X005165Y003943D02*
X000435Y003943D01*
X000435Y004042D02*
X005165Y004042D01*
M02*
