G75*
%MOIN*%
%OFA0B0*%
%FSLAX24Y24*%
%IPPOS*%
%LPD*%
%AMOC8*
5,1,8,0,0,1.08239X$1,22.5*
%
%ADD10R,0.0740X0.0740*%
%ADD11C,0.0740*%
%ADD12C,0.0100*%
%ADD13C,0.0160*%
D10*
X000700Y003200D03*
X002200Y003200D03*
D11*
X003200Y003200D03*
X003200Y002200D03*
X002200Y002200D03*
X002200Y001200D03*
X003200Y001200D03*
X004700Y001200D03*
X004700Y002200D03*
X004700Y003200D03*
X000700Y002200D03*
X000700Y001200D03*
D12*
X000335Y000858D02*
X000335Y000335D01*
X005065Y000335D01*
X005065Y000830D01*
X005039Y000803D01*
X004973Y000755D01*
X004900Y000718D01*
X004822Y000693D01*
X004750Y000681D01*
X004750Y001150D01*
X004650Y001150D01*
X004650Y000681D01*
X004578Y000693D01*
X004500Y000718D01*
X004427Y000755D01*
X004361Y000803D01*
X004303Y000861D01*
X004255Y000927D01*
X004218Y001000D01*
X004193Y001078D01*
X004181Y001150D01*
X004650Y001150D01*
X004650Y001250D01*
X004181Y001250D01*
X004193Y001322D01*
X004218Y001400D01*
X004255Y001473D01*
X004303Y001539D01*
X004361Y001597D01*
X004427Y001645D01*
X004500Y001682D01*
X004578Y001707D01*
X004582Y001708D01*
X004417Y001776D01*
X003483Y001776D01*
X003624Y001917D01*
X003654Y001990D01*
X004246Y001990D01*
X004276Y001917D01*
X004417Y001776D01*
X004492Y001678D02*
X003408Y001678D01*
X003400Y001682D02*
X003322Y001707D01*
X003318Y001708D01*
X003483Y001776D01*
X003400Y001682D02*
X003473Y001645D01*
X003539Y001597D01*
X003597Y001539D01*
X003645Y001473D01*
X003682Y001400D01*
X003707Y001322D01*
X003719Y001250D01*
X003250Y001250D01*
X003250Y001150D01*
X003719Y001150D01*
X003707Y001078D01*
X003682Y001000D01*
X003645Y000927D01*
X003597Y000861D01*
X003539Y000803D01*
X003473Y000755D01*
X003400Y000718D01*
X003322Y000693D01*
X003250Y000681D01*
X003250Y001150D01*
X003150Y001150D01*
X003150Y000681D01*
X003078Y000693D01*
X003000Y000718D01*
X002927Y000755D01*
X002861Y000803D01*
X002803Y000861D01*
X002755Y000927D01*
X002718Y001000D01*
X002693Y001078D01*
X002692Y001082D01*
X002624Y000917D01*
X002483Y000776D01*
X002299Y000700D01*
X002101Y000700D01*
X001917Y000776D01*
X001776Y000917D01*
X001746Y000990D01*
X001154Y000990D01*
X001124Y000917D01*
X000983Y000776D01*
X000799Y000700D01*
X000601Y000700D01*
X000417Y000776D01*
X000335Y000858D01*
X000335Y000791D02*
X000402Y000791D01*
X000335Y000693D02*
X003080Y000693D01*
X003150Y000693D02*
X003250Y000693D01*
X003320Y000693D02*
X004580Y000693D01*
X004650Y000693D02*
X004750Y000693D01*
X004820Y000693D02*
X005065Y000693D01*
X005065Y000594D02*
X000335Y000594D01*
X000335Y000496D02*
X005065Y000496D01*
X005065Y000397D02*
X000335Y000397D01*
X000998Y000791D02*
X001902Y000791D01*
X001803Y000890D02*
X001097Y000890D01*
X001153Y000988D02*
X001747Y000988D01*
X002498Y000791D02*
X002878Y000791D01*
X002783Y000890D02*
X002597Y000890D01*
X002653Y000988D02*
X002724Y000988D01*
X003150Y000988D02*
X003250Y000988D01*
X003250Y000890D02*
X003150Y000890D01*
X003150Y000791D02*
X003250Y000791D01*
X003522Y000791D02*
X004378Y000791D01*
X004283Y000890D02*
X003617Y000890D01*
X003676Y000988D02*
X004224Y000988D01*
X004191Y001087D02*
X003709Y001087D01*
X003713Y001284D02*
X004187Y001284D01*
X004212Y001382D02*
X003688Y001382D01*
X003639Y001481D02*
X004261Y001481D01*
X004344Y001579D02*
X003556Y001579D01*
X003582Y001875D02*
X004318Y001875D01*
X004253Y001973D02*
X003647Y001973D01*
X003250Y001185D02*
X004650Y001185D01*
X004650Y001087D02*
X004750Y001087D01*
X004750Y000988D02*
X004650Y000988D01*
X004650Y000890D02*
X004750Y000890D01*
X004750Y000791D02*
X004650Y000791D01*
X005022Y000791D02*
X005065Y000791D01*
X003250Y001087D02*
X003150Y001087D01*
D13*
X003200Y001200D02*
X004700Y001200D01*
X004700Y002200D02*
X003200Y002200D01*
X002200Y002200D02*
X000700Y002200D01*
X000700Y001200D02*
X002200Y001200D01*
X002200Y003200D02*
X000700Y003200D01*
X003200Y003200D02*
X004700Y003200D01*
M02*
