G75*
%MOIN*%
%OFA0B0*%
%FSLAX24Y24*%
%IPPOS*%
%LPD*%
%AMOC8*
5,1,8,0,0,1.08239X$1,22.5*
%
%ADD10C,0.0030*%
%ADD11C,0.0080*%
D10*
X000415Y000315D02*
X000415Y000585D01*
X000550Y000585D01*
X000595Y000540D01*
X000595Y000450D01*
X000550Y000405D01*
X000415Y000405D01*
X000505Y000405D02*
X000595Y000315D01*
X000691Y000360D02*
X000736Y000315D01*
X000826Y000315D01*
X000871Y000360D01*
X000871Y000405D01*
X000826Y000450D01*
X000736Y000450D01*
X000691Y000495D01*
X000691Y000540D01*
X000736Y000585D01*
X000826Y000585D01*
X000871Y000540D01*
X000967Y000585D02*
X001148Y000585D01*
X001058Y000585D02*
X001058Y000315D01*
X001765Y000315D02*
X001900Y000315D01*
X001945Y000360D01*
X001945Y000405D01*
X001900Y000450D01*
X001765Y000450D01*
X001900Y000450D02*
X001945Y000495D01*
X001945Y000540D01*
X001900Y000585D01*
X001765Y000585D01*
X001765Y000315D01*
X002041Y000315D02*
X002041Y000585D01*
X002176Y000585D01*
X002221Y000540D01*
X002221Y000450D01*
X002176Y000405D01*
X002041Y000405D01*
X002131Y000405D02*
X002221Y000315D01*
X002317Y000315D02*
X002498Y000315D01*
X002594Y000315D02*
X002594Y000495D01*
X002684Y000585D01*
X002774Y000495D01*
X002774Y000315D01*
X002870Y000315D02*
X002870Y000585D01*
X002915Y000450D02*
X003050Y000315D01*
X003146Y000360D02*
X003191Y000315D01*
X003281Y000315D01*
X003326Y000360D01*
X003326Y000540D01*
X003281Y000585D01*
X003191Y000585D01*
X003146Y000540D01*
X003146Y000360D01*
X003050Y000585D02*
X002870Y000405D01*
X002774Y000450D02*
X002594Y000450D01*
X002498Y000585D02*
X002317Y000585D01*
X002317Y000315D01*
X002317Y000450D02*
X002408Y000450D01*
X003422Y000360D02*
X003467Y000315D01*
X003558Y000315D01*
X003603Y000360D01*
X003603Y000585D01*
X003699Y000585D02*
X003879Y000585D01*
X003789Y000585D02*
X003789Y000315D01*
X003422Y000360D02*
X003422Y000585D01*
X004215Y000540D02*
X004215Y000360D01*
X004260Y000315D01*
X004350Y000315D01*
X004395Y000360D01*
X004395Y000450D01*
X004305Y000450D01*
X004215Y000540D02*
X004260Y000585D01*
X004350Y000585D01*
X004395Y000540D01*
X004491Y000585D02*
X004671Y000315D01*
X004671Y000585D01*
X004767Y000585D02*
X004903Y000585D01*
X004948Y000540D01*
X004948Y000360D01*
X004903Y000315D01*
X004767Y000315D01*
X004767Y000585D01*
X004491Y000585D02*
X004491Y000315D01*
X004185Y001715D02*
X003915Y001715D01*
X004005Y001805D01*
X003915Y001895D01*
X004185Y001895D01*
X004140Y001991D02*
X004185Y002036D01*
X004185Y002126D01*
X004140Y002171D01*
X003960Y002171D01*
X003915Y002126D01*
X003915Y002036D01*
X003960Y001991D01*
X004140Y001991D01*
X004140Y002267D02*
X004185Y002313D01*
X004185Y002403D01*
X004140Y002448D01*
X004095Y002448D01*
X004050Y002403D01*
X004050Y002313D01*
X004005Y002267D01*
X003960Y002267D01*
X003915Y002313D01*
X003915Y002403D01*
X003960Y002448D01*
X003915Y002544D02*
X003915Y002634D01*
X003915Y002589D02*
X004185Y002589D01*
X004185Y002544D02*
X004185Y002634D01*
X004405Y003815D02*
X004495Y003905D01*
X004495Y004085D01*
X004591Y004040D02*
X004591Y003860D01*
X004636Y003815D01*
X004726Y003815D01*
X004771Y003860D01*
X004867Y003860D02*
X004913Y003815D01*
X005003Y003815D01*
X005048Y003860D01*
X004867Y003860D02*
X004867Y004040D01*
X004913Y004085D01*
X005003Y004085D01*
X005048Y004040D01*
X004771Y004040D02*
X004726Y004085D01*
X004636Y004085D01*
X004591Y004040D01*
X004315Y004085D02*
X004315Y003905D01*
X004405Y003815D01*
X003158Y003815D02*
X003067Y003815D01*
X003113Y003815D02*
X003113Y004085D01*
X003158Y004085D02*
X003067Y004085D01*
X002971Y004040D02*
X002971Y003950D01*
X002926Y003905D01*
X002791Y003905D01*
X002791Y003815D02*
X002791Y004085D01*
X002926Y004085D01*
X002971Y004040D01*
X002695Y004040D02*
X002650Y004085D01*
X002560Y004085D01*
X002515Y004040D01*
X002515Y003995D01*
X002560Y003950D01*
X002650Y003950D01*
X002695Y003905D01*
X002695Y003860D01*
X002650Y003815D01*
X002560Y003815D01*
X002515Y003860D01*
X001332Y003860D02*
X001332Y004040D01*
X001287Y004085D01*
X001197Y004085D01*
X001152Y004040D01*
X001152Y003860D01*
X001197Y003815D01*
X001287Y003815D01*
X001332Y003860D01*
X001056Y003860D02*
X001011Y003815D01*
X000920Y003815D01*
X000875Y003860D01*
X000920Y003950D02*
X001011Y003950D01*
X001056Y003905D01*
X001056Y003860D01*
X000920Y003950D02*
X000875Y003995D01*
X000875Y004040D01*
X000920Y004085D01*
X001011Y004085D01*
X001056Y004040D01*
X000781Y004085D02*
X000691Y004085D01*
X000736Y004085D02*
X000736Y003815D01*
X000691Y003815D02*
X000781Y003815D01*
X000595Y003815D02*
X000595Y004085D01*
X000505Y003995D01*
X000415Y004085D01*
X000415Y003815D01*
X001460Y002585D02*
X001415Y002540D01*
X001415Y002450D01*
X001460Y002405D01*
X001505Y002405D01*
X001550Y002450D01*
X001550Y002540D01*
X001595Y002585D01*
X001640Y002585D01*
X001685Y002540D01*
X001685Y002450D01*
X001640Y002405D01*
X001640Y002309D02*
X001460Y002309D01*
X001415Y002264D01*
X001415Y002174D01*
X001460Y002129D01*
X001415Y002033D02*
X001685Y002033D01*
X001640Y002129D02*
X001685Y002174D01*
X001685Y002264D01*
X001640Y002309D01*
X001505Y002033D02*
X001685Y001852D01*
X001550Y001987D02*
X001415Y001852D01*
D11*
X001600Y002950D02*
X001600Y003450D01*
X001800Y003700D02*
X003800Y003700D01*
X003800Y000700D01*
X001800Y000700D01*
X001800Y003700D01*
X001300Y003700D02*
X000300Y003700D01*
X000300Y000700D01*
X001300Y000700D01*
X001300Y003700D01*
X004300Y003700D02*
X004300Y000700D01*
X005300Y000700D01*
X005300Y003700D01*
X004300Y003700D01*
M02*
