G75*
%MOIN*%
%OFA0B0*%
%FSLAX24Y24*%
%IPPOS*%
%LPD*%
%AMOC8*
5,1,8,0,0,1.08239X$1,22.5*
%
%ADD10C,0.0050*%
%ADD11C,0.0080*%
D10*
X000325Y000325D02*
X000325Y000575D01*
X000450Y000575D01*
X000492Y000534D01*
X000492Y000450D01*
X000450Y000408D01*
X000325Y000408D01*
X000408Y000408D02*
X000492Y000325D01*
X000601Y000367D02*
X000643Y000325D01*
X000726Y000325D01*
X000768Y000367D01*
X000768Y000408D01*
X000726Y000450D01*
X000643Y000450D01*
X000601Y000492D01*
X000601Y000534D01*
X000643Y000575D01*
X000726Y000575D01*
X000768Y000534D01*
X000877Y000575D02*
X001044Y000575D01*
X000961Y000575D02*
X000961Y000325D01*
X002425Y000367D02*
X002467Y000325D01*
X002550Y000325D01*
X002592Y000367D01*
X002592Y000408D01*
X002550Y000450D01*
X002467Y000450D01*
X002425Y000492D01*
X002425Y000534D01*
X002467Y000575D01*
X002550Y000575D01*
X002592Y000534D01*
X002701Y000575D02*
X002826Y000575D01*
X002868Y000534D01*
X002868Y000450D01*
X002826Y000408D01*
X002701Y000408D01*
X002701Y000325D02*
X002701Y000575D01*
X002977Y000575D02*
X003061Y000575D01*
X003019Y000575D02*
X003019Y000325D01*
X002977Y000325D02*
X003061Y000325D01*
X004125Y000367D02*
X004167Y000325D01*
X004250Y000325D01*
X004292Y000367D01*
X004292Y000450D01*
X004208Y000450D01*
X004125Y000367D02*
X004125Y000534D01*
X004167Y000575D01*
X004250Y000575D01*
X004292Y000534D01*
X004401Y000575D02*
X004568Y000325D01*
X004568Y000575D01*
X004677Y000575D02*
X004803Y000575D01*
X004844Y000534D01*
X004844Y000367D01*
X004803Y000325D01*
X004677Y000325D01*
X004677Y000575D01*
X004401Y000575D02*
X004401Y000325D01*
X004075Y001725D02*
X003825Y001725D01*
X003908Y001808D01*
X003825Y001892D01*
X004075Y001892D01*
X004033Y002001D02*
X004075Y002043D01*
X004075Y002126D01*
X004033Y002168D01*
X003866Y002168D01*
X003825Y002126D01*
X003825Y002043D01*
X003866Y002001D01*
X004033Y002001D01*
X004033Y002277D02*
X004075Y002319D01*
X004075Y002403D01*
X004033Y002444D01*
X003992Y002444D01*
X003950Y002403D01*
X003950Y002319D01*
X003908Y002277D01*
X003866Y002277D01*
X003825Y002319D01*
X003825Y002403D01*
X003866Y002444D01*
X003825Y002554D02*
X003825Y002637D01*
X003825Y002595D02*
X004075Y002595D01*
X004075Y002554D02*
X004075Y002637D01*
X004308Y003825D02*
X004392Y003908D01*
X004392Y004075D01*
X004501Y004034D02*
X004501Y003867D01*
X004543Y003825D01*
X004626Y003825D01*
X004668Y003867D01*
X004777Y003867D02*
X004819Y003825D01*
X004903Y003825D01*
X004944Y003867D01*
X004777Y003867D02*
X004777Y004034D01*
X004819Y004075D01*
X004903Y004075D01*
X004944Y004034D01*
X004668Y004034D02*
X004626Y004075D01*
X004543Y004075D01*
X004501Y004034D01*
X004308Y003825D02*
X004225Y003908D01*
X004225Y004075D01*
X003810Y004034D02*
X003768Y004075D01*
X003685Y004075D01*
X003643Y004034D01*
X003643Y003867D01*
X003685Y003825D01*
X003768Y003825D01*
X003810Y003867D01*
X003542Y003825D02*
X003459Y003825D01*
X003500Y003825D02*
X003500Y004075D01*
X003459Y004075D02*
X003542Y004075D01*
X003349Y004075D02*
X003182Y004075D01*
X003266Y004075D02*
X003266Y003825D01*
X003073Y003867D02*
X003073Y004034D01*
X003031Y004075D01*
X002948Y004075D01*
X002906Y004034D01*
X002906Y003867D01*
X002948Y003825D01*
X003031Y003825D01*
X003073Y003867D01*
X002797Y003867D02*
X002755Y003825D01*
X002630Y003825D01*
X002630Y004075D01*
X002755Y004075D01*
X002797Y004034D01*
X002797Y003992D01*
X002755Y003950D01*
X002630Y003950D01*
X002755Y003950D02*
X002797Y003908D01*
X002797Y003867D01*
X002521Y003867D02*
X002521Y004034D01*
X002479Y004075D01*
X002395Y004075D01*
X002354Y004034D01*
X002354Y003867D01*
X002395Y003825D01*
X002479Y003825D01*
X002521Y003867D01*
X002244Y003825D02*
X002161Y003908D01*
X002203Y003908D02*
X002244Y003950D01*
X002244Y004034D01*
X002203Y004075D01*
X002077Y004075D01*
X002077Y003825D01*
X002077Y003908D02*
X002203Y003908D01*
X001968Y003867D02*
X001926Y003825D01*
X001843Y003825D01*
X001801Y003867D01*
X001801Y004034D01*
X001843Y004075D01*
X001926Y004075D01*
X001968Y004034D01*
X001692Y003992D02*
X001692Y003825D01*
X001692Y003950D02*
X001525Y003950D01*
X001525Y003992D02*
X001608Y004075D01*
X001692Y003992D01*
X001525Y003992D02*
X001525Y003825D01*
X001228Y003867D02*
X001187Y003825D01*
X001103Y003825D01*
X001062Y003867D01*
X001062Y004034D01*
X001103Y004075D01*
X001187Y004075D01*
X001228Y004034D01*
X001228Y003867D01*
X000952Y003867D02*
X000910Y003825D01*
X000827Y003825D01*
X000785Y003867D01*
X000827Y003950D02*
X000910Y003950D01*
X000952Y003908D01*
X000952Y003867D01*
X000827Y003950D02*
X000785Y003992D01*
X000785Y004034D01*
X000827Y004075D01*
X000910Y004075D01*
X000952Y004034D01*
X000685Y004075D02*
X000601Y004075D01*
X000643Y004075D02*
X000643Y003825D01*
X000601Y003825D02*
X000685Y003825D01*
X000492Y003825D02*
X000492Y004075D01*
X000408Y003992D01*
X000325Y004075D01*
X000325Y003825D01*
X001367Y002575D02*
X001325Y002533D01*
X001325Y002450D01*
X001367Y002408D01*
X001408Y002408D01*
X001450Y002450D01*
X001450Y002533D01*
X001492Y002575D01*
X001534Y002575D01*
X001575Y002533D01*
X001575Y002450D01*
X001534Y002408D01*
X001534Y002299D02*
X001367Y002299D01*
X001325Y002257D01*
X001325Y002174D01*
X001367Y002132D01*
X001408Y002023D02*
X001575Y001856D01*
X001450Y001981D02*
X001325Y001856D01*
X001325Y002023D02*
X001575Y002023D01*
X001534Y002132D02*
X001575Y002174D01*
X001575Y002257D01*
X001534Y002299D01*
D11*
X001700Y002450D02*
X001950Y002700D01*
X001700Y002950D01*
X001700Y003450D01*
X001950Y003700D01*
X002450Y003700D01*
X002700Y003450D01*
X002950Y003700D01*
X003450Y003700D01*
X003700Y003450D01*
X003700Y002950D01*
X003450Y002700D01*
X003700Y002450D01*
X003700Y001950D01*
X003450Y001700D01*
X003700Y001450D01*
X003700Y000950D01*
X003450Y000700D01*
X002950Y000700D01*
X002700Y000950D01*
X002450Y000700D01*
X001950Y000700D01*
X001700Y000950D01*
X001700Y001450D01*
X001950Y001700D01*
X001700Y001950D01*
X001700Y002450D01*
X002200Y002700D02*
X003200Y002700D01*
X003200Y001700D02*
X002200Y001700D01*
X001200Y000700D02*
X000200Y000700D01*
X000200Y003700D01*
X001200Y003700D01*
X001200Y000700D01*
X001500Y002950D02*
X001500Y003450D01*
X004200Y003700D02*
X004200Y000700D01*
X005200Y000700D01*
X005200Y003700D01*
X004200Y003700D01*
M02*
